<svg width="1" height="1" viewBox="0 0 1 1" fill="none" xmlns="http://www.w3.org/2000/svg">
<g>
<rect width="0.0200005" height="0.913" fill="black"/>
<rect x="0.352051" width="0.0200005" height="0.8" fill="black"/>
<rect x="0.176025" width="0.0200005" height="0.687" fill="black"/>
<rect x="0.528076" width="0.0200005" height="0.634" fill="black"/>
<rect x="0.0878906" width="0.0200005" height="0.8" fill="black"/>
<rect x="0.439941" width="0.0200005" height="0.634" fill="black"/>
<rect x="0.263916" width="0.0200005" height="0.653" fill="black"/>
<rect x="0.0439453" width="0.0200005" height="0.8" fill="black"/>
<rect x="0.395996" width="0.0200005" height="0.748" fill="black"/>
<rect x="0.219971" width="0.0200005" height="0.669" fill="black"/>
<rect x="0.13208" width="0.0200005" height="0.762" fill="black"/>
<rect x="0.484131" width="0.0200005" height="0.634" fill="black"/>
<rect x="0.308105" width="0.0200005" height="0.653" fill="black"/>
<rect x="0.0219727" width="0.0200005" height="0.862" fill="black"/>
<rect x="0.374023" width="0.0200005" height="0.687" fill="black"/>
<rect x="0.197998" width="0.0200005" height="0.634" fill="black"/>
<rect x="0.550049" width="0.0200005" height="0.687" fill="black"/>
<rect x="0.110107" width="0.0200005" height="0.817" fill="black"/>
<rect x="0.461914" width="0.0200005" height="0.669" fill="black"/>
<rect x="0.285889" width="0.0200005" height="0.706" fill="black"/>
<rect x="0.065918" width="0.0200005" height="0.73" fill="black"/>
<rect x="0.417969" width="0.0200005" height="0.669" fill="black"/>
<rect x="0.241943" width="0.0200005" height="0.687" fill="black"/>
<rect x="0.154053" width="0.0200005" height="0.73" fill="black"/>
<rect x="0.506104" width="0.0200005" height="0.669" fill="black"/>
<rect x="0.330078" width="0.0200005" height="0.721" fill="black"/>
</g>
</svg>
