<svg width="1" height="1" viewBox="0 0 1 1" fill="none" xmlns="http://www.w3.org/2000/svg">
<g>
<rect width="0.02" height="0.711" fill="black"/>
<rect x="0.324951" width="0.02" height="0.711" fill="black"/>
<rect x="0.649902" width="0.02" height="0.711" fill="black"/>
<rect x="0.175049" width="0.02" height="0.8" fill="black"/>
<rect x="0.5" width="0.02" height="0.8" fill="black"/>
<rect x="0.824951" width="0.02" height="0.8" fill="black"/>
<rect x="0.149902" width="0.02" height="0.839" fill="black"/>
<rect x="0.475098" width="0.02" height="0.839" fill="black"/>
<rect x="0.800049" width="0.02" height="0.839" fill="black"/>
<rect x="0.125" width="0.02" height="0.813" fill="black"/>
<rect x="0.449951" width="0.02" height="0.813" fill="black"/>
<rect x="0.774902" width="0.02" height="0.813" fill="black"/>
<rect x="0.300049" width="0.02" height="0.839" fill="black"/>
<rect x="0.625" width="0.02" height="0.839" fill="black"/>
<rect x="0.949951" width="0.02" height="0.839" fill="black"/>
<rect x="0.100098" width="0.02" height="0.775" fill="black"/>
<rect x="0.425049" width="0.02" height="0.775" fill="black"/>
<rect x="0.75" width="0.02" height="0.775" fill="black"/>
<rect x="0.274902" width="0.02" height="0.729" fill="black"/>
<rect x="0.600098" width="0.02" height="0.729" fill="black"/>
<rect x="0.925049" width="0.02" height="0.729" fill="black"/>
<rect x="0.0749512" width="0.02" height="0.8" fill="black"/>
<rect x="0.399902" width="0.02" height="0.8" fill="black"/>
<rect x="0.725098" width="0.02" height="0.8" fill="black"/>
<rect x="0.25" width="0.02" height="0.813" fill="black"/>
<rect x="0.574951" width="0.02" height="0.813" fill="black"/>
<rect x="0.899902" width="0.02" height="0.813" fill="black"/>
<rect x="0.0500488" width="0.02" height="0.813" fill="black"/>
<rect x="0.375" width="0.02" height="0.813" fill="black"/>
<rect x="0.699951" width="0.02" height="0.813" fill="black"/>
<rect x="0.225098" width="0.02" height="0.695" fill="black"/>
<rect x="0.550049" width="0.02" height="0.695" fill="black"/>
<rect x="0.875" width="0.02" height="0.695" fill="black"/>
<rect x="0.0249023" width="0.02" height="0.751" fill="black"/>
<rect x="0.350098" width="0.02" height="0.751" fill="black"/>
<rect x="0.675049" width="0.02" height="0.751" fill="black"/>
<rect x="0.199951" width="0.02" height="0.74" fill="black"/>
<rect x="0.524902" width="0.02" height="0.74" fill="black"/>
<rect x="0.850098" width="0.02" height="0.74" fill="black"/>
</g>
</svg>
