<svg width="50" height="50" viewBox="0 0 50 50" fill="none" xmlns="http://www.w3.org/2000/svg">
<g clip-path="url(#clip0_14_7)">
<path d="M0.0361671 14.4233L24.6599 0L49.3488 16.1308V16.9664L24.6599 5.44959L6.25903 13.297C7.41677 13.297 8.57452 13.297 9.73226 13.297V15.2952V32.7702C10.0434 32.6322 10.3835 32.5014 10.7453 32.3706C11.2084 32.2035 11.6498 32.0727 12.0622 31.9709C12.0622 32.683 12.0622 33.4024 12.0622 34.1144C11.1505 34.376 10.1519 34.7175 9.08103 35.168C8.05353 35.604 7.13457 36.0618 6.33139 36.5123C6.33139 29.4423 6.33139 22.3651 6.33139 15.2952H0.0361671V14.4233Z" fill="#74B9FF"/>
<path d="M15.2243 31.0627C16.4834 30.743 17.5688 30.5105 18.6686 30.3361C18.1693 29.9364 16.9031 28.8102 16.8596 27.248C16.8162 25.555 17.9306 24.1889 19.3271 23.2298C20.7236 22.2707 22.2359 21.624 23.1042 20.1853C23.7699 19.0808 23.8278 17.8892 23.7772 17.0391H24.631H25.4704C25.4125 17.8819 25.4776 19.0808 26.1433 20.1853C27.0116 21.624 28.5239 22.2707 29.9204 23.2298C31.317 24.1889 32.4313 25.555 32.3879 27.248C32.3445 28.8102 31.0782 29.9364 30.5789 30.3361C31.7583 30.6412 33.1404 31.1063 34.6165 31.8111C35.6295 32.2979 36.5123 32.8138 37.2721 33.3152C37.2721 34.1435 37.2721 34.9791 37.2721 35.8075C35.8249 34.6521 34.4935 33.8311 33.4588 33.2643C32.2287 32.5886 30.8032 31.8184 28.7844 31.2952C27.5036 30.961 26.3966 30.8374 25.6006 30.7938C25.6006 30.4523 25.6006 30.1108 25.6006 29.7693C26.0999 29.7693 26.5919 29.7693 27.0912 29.7693C27.3806 29.6748 27.945 29.4496 28.4443 28.9119C28.5528 28.7956 29.2547 28.0254 29.3126 26.8774C29.3777 25.6058 28.6035 24.6758 28.1332 24.1163C27.3372 23.1571 26.8379 23.1644 25.9624 22.2053C25.2533 21.4278 24.8553 20.6285 24.6238 20.0618C24.6238 20.0618 24.0666 21.4714 23.3358 22.2779C22.5543 23.1426 22.1201 23.1063 21.3459 23.9855C20.9117 24.4796 20 25.5041 20.0434 26.9137C20.0507 27.1898 20.0941 28.1199 20.8032 28.9119C21.2952 29.4569 21.8669 29.6748 22.1563 29.7693H23.7844C23.7844 30.1108 23.7844 30.4451 23.7844 30.7866C21.9899 31.099 20.029 31.5204 17.9378 32.1163C15.767 32.7266 13.8133 33.4169 12.0695 34.1144V31.9709C13.0029 31.6512 14.1245 31.3388 15.2243 31.0627Z" fill="#74B9FF"/>
<path d="M37.2214 33.2788C39.1099 34.703 40.4992 36.069 41.4182 37.0572C44.2764 40.1381 45.8755 43.0881 47.0839 45.3624C48.1042 47.2807 48.8205 48.9301 49.2764 50.0636C48.5672 50.0636 47.8654 50.0636 47.1563 50.0636C46.534 48.7993 45.4848 47.0263 43.7626 45.2825C42.3299 43.8292 40.89 42.8701 39.7829 42.238C38.2272 43.1898 36.0347 44.3161 33.2561 45.1154C30.2098 46.0018 27.5325 46.1835 25.6078 46.1689C25.6078 47.4623 25.6078 48.7629 25.6078 50.0563H23.6903V46.1835C21.7872 46.1544 19.2474 45.9364 16.3675 45.1444C13.4659 44.3451 11.1505 43.2189 9.49344 42.2598C8.35741 42.9064 6.85958 43.9164 5.36898 45.4569C3.73367 47.1499 2.72065 48.8429 2.1056 50.0781C1.40372 50.0781 0.694599 50.0781 -0.00728226 50.0781C0.528175 48.7339 1.16493 47.5786 1.8451 46.5686C8.16204 37.1953 21.2156 36.4977 24.602 36.4105C26.8958 36.3597 30.1953 36.5413 33.9725 37.653C37.547 38.7066 40.2966 40.218 42.1635 41.4387C41.6063 40.4941 40.8538 39.3824 39.8335 38.2343C38.9146 37.2025 38.0028 36.3887 37.2069 35.7639C37.2214 34.9428 37.2214 34.1072 37.2214 33.2788Z" fill="#74B9FF"/>
<path d="M25.6078 38.3361V44.2579C27.2648 44.2507 29.4573 44.0908 31.9392 43.4514C34.3487 42.8338 36.2952 41.9619 37.7279 41.1844C36.2228 40.4505 34.2402 39.6512 31.8451 39.0917C29.4283 38.525 27.2865 38.3506 25.6078 38.3361Z" fill="white"/>
<path d="M23.7047 38.3361V44.2579C22.0477 44.2507 19.8552 44.0908 17.3733 43.4514C14.9638 42.8338 13.0173 41.9619 11.5846 41.1844C13.0897 40.4505 15.0723 39.6512 17.4674 39.0917C19.8842 38.525 22.026 38.3506 23.7047 38.3361Z" fill="white"/>
</g>
<defs>
<clipPath id="clip0_14_7">
<rect width="50" height="50" fill="white" transform="matrix(-1 0 0 1 50 0)"/>
</clipPath>
</defs>
</svg>
